<svg width="64" height="64" viewBox="0 0 64 64" fill="none" xmlns="http://www.w3.org/2000/svg">
<rect width="64" height="64" fill="white"/>
<path d="M9.51778 30.8078V21.4926H7.12499V19.42H9.51778V18.3724C9.51778 17.598 9.69249 16.8995 10.0419 16.277C10.3913 15.6393 10.8927 15.1458 11.546 14.7966C12.2144 14.4322 12.9968 14.25 13.8932 14.25C14.668 14.25 15.3516 14.417 15.9441 14.7511V16.9147C15.4276 16.6262 14.8047 16.482 14.0755 16.482C13.4374 16.482 12.9437 16.6566 12.5942 17.0058C12.2448 17.3399 12.0701 17.803 12.0701 18.3951V19.42H15.3289V21.4926H12.0701V26.1502V30.8078H9.51778Z" fill="#00AEEF"/>
<path d="M16.7973 30.8078V19.2378H19.2357V20.7638C20.2535 19.625 21.4765 19.0556 22.9046 19.0556C23.254 19.0556 23.5655 19.1012 23.8389 19.1923V21.5837C23.6111 21.5382 23.3376 21.5154 23.0186 21.5154C22.3045 21.5154 21.6285 21.652 20.9904 21.9253C20.3675 22.1986 19.8206 22.5706 19.3496 23.0413V30.8078H16.7973Z" fill="#00AEEF"/>
<path d="M30.401 30.9672C29.2615 30.9672 28.2209 30.7091 27.2789 30.1928C26.3522 29.6766 25.623 28.963 25.0912 28.0519C24.5595 27.1409 24.2936 26.116 24.2936 24.9772C24.2936 23.8992 24.5519 22.9047 25.0684 21.9937C25.6002 21.0826 26.3218 20.369 27.2334 19.8528C28.1449 19.3213 29.1476 19.0556 30.2414 19.0556C31.3505 19.0556 32.3152 19.3062 33.1356 19.8072C33.956 20.3083 34.5865 20.9764 35.027 21.8115C35.4676 22.6314 35.6879 23.5044 35.6879 24.4306C35.6879 24.8558 35.6423 25.2733 35.5512 25.6833H26.8915C27.0131 26.5639 27.3777 27.2776 27.9854 27.8242C28.6083 28.3708 29.4135 28.6441 30.401 28.6441C31.039 28.6441 31.5936 28.5226 32.0645 28.2797C32.5355 28.0368 32.9077 27.7027 33.1812 27.2776H35.6195C35.3309 28.3404 34.708 29.2211 33.7509 29.9195C32.8089 30.618 31.6923 30.9672 30.401 30.9672ZM33.2267 23.8613C33.1508 23.1173 32.8469 22.5023 32.3152 22.0164C31.7835 21.5306 31.0846 21.2876 30.2187 21.2876C29.3679 21.2876 28.6386 21.5382 28.031 22.0392C27.4385 22.5251 27.0738 23.1324 26.9371 23.8613H33.2267Z" fill="#00AEEF"/>
<path d="M42.6047 30.9444C41.359 30.9444 40.3639 30.5952 39.6194 29.8968C38.8902 29.1831 38.5256 28.143 38.5256 26.7765V21.3104H36.224V19.2378H38.5256V16.3681H41.1007V19.2378H44.5873V21.3104H41.1007V26.6854C41.1007 27.3687 41.2602 27.8925 41.5793 28.2569C41.9135 28.6061 42.3617 28.7808 42.9238 28.7808C43.5467 28.7808 44.1696 28.6593 44.7924 28.4163V30.4661C44.124 30.785 43.3947 30.9444 42.6047 30.9444Z" fill="#00AEEF"/>
<path d="M51.588 30.9672C50.4486 30.9672 49.4079 30.7091 48.466 30.1928C47.5393 29.6766 46.8101 28.963 46.2783 28.0519C45.7466 27.1409 45.4807 26.116 45.4807 24.9772C45.4807 23.8992 45.739 22.9047 46.2555 21.9937C46.7873 21.0826 47.5089 20.369 48.4204 19.8528C49.332 19.3213 50.3347 19.0556 51.4285 19.0556C52.5376 19.0556 53.5023 19.3062 54.3227 19.8072C55.1431 20.3083 55.7735 20.9764 56.2141 21.8115C56.6547 22.6314 56.875 23.5044 56.875 24.4306C56.875 24.8558 56.8294 25.2733 56.7382 25.6833H48.0786C48.2002 26.5639 48.5648 27.2776 49.1725 27.8242C49.7954 28.3708 50.6005 28.6441 51.588 28.6441C52.2261 28.6441 52.7806 28.5226 53.2516 28.2797C53.7226 28.0368 54.0948 27.7027 54.3682 27.2776H56.8066C56.518 28.3404 55.8951 29.2211 54.938 29.9195C53.996 30.618 52.8794 30.9672 51.588 30.9672ZM54.4138 23.8613C54.3379 23.1173 54.034 22.5023 53.5023 22.0164C52.9706 21.5306 52.2717 21.2876 51.4057 21.2876C50.555 21.2876 49.8257 21.5382 49.218 22.0392C48.6255 22.5251 48.2609 23.1324 48.1242 23.8613H54.4138Z" fill="#00AEEF"/>
<path d="M15.1015 49.6817C14.4787 49.6817 13.9013 49.5982 13.3696 49.4311C12.8531 49.2641 12.3517 48.9984 11.8656 48.634V49.5678H9.47277V33.1922H12.0251V38.8861C12.9366 38.218 13.9925 37.884 15.1927 37.884C16.2865 37.884 17.274 38.1269 18.1552 38.6128C19.0364 39.0987 19.7352 39.7819 20.2517 40.6626C20.7683 41.5432 21.0266 42.5681 21.0266 43.7373C21.0266 44.9216 20.7531 45.9617 20.2062 46.8575C19.6744 47.7533 18.9528 48.4518 18.0413 48.9529C17.1449 49.4387 16.165 49.6817 15.1015 49.6817ZM14.8281 47.3813C15.4813 47.3813 16.0814 47.2371 16.6284 46.9486C17.1905 46.6449 17.6311 46.2198 17.9501 45.6732C18.2691 45.1266 18.4287 44.4813 18.4287 43.7373C18.4287 42.644 18.102 41.7786 17.4488 41.1409C16.7955 40.5031 15.9675 40.1843 14.9648 40.1843C13.7798 40.1843 12.7999 40.5335 12.0251 41.232V46.4475C12.7999 47.0701 13.7342 47.3813 14.8281 47.3813Z" fill="#111111"/>
<path d="M22.8147 49.5678V37.9978H25.2531V39.5238C26.271 38.385 27.494 37.8156 28.9221 37.8156C29.2715 37.8156 29.5829 37.8612 29.8564 37.9523V40.3437C29.6285 40.2982 29.355 40.2754 29.036 40.2754C28.322 40.2754 27.6459 40.412 27.0078 40.6854C26.3849 40.9587 25.838 41.3307 25.3671 41.8014V49.5678H22.8147Z" fill="#111111"/>
<path d="M34.3398 49.7044C33.2156 49.7044 32.2965 49.416 31.5824 48.839C30.8836 48.2468 30.5342 47.4345 30.5342 46.402C30.5342 45.3695 30.9064 44.5496 31.6508 43.9422C32.4104 43.3349 33.4815 43.0312 34.864 43.0312H37.234V42.0291C37.234 41.3762 37.0745 40.8676 36.7554 40.5031C36.4364 40.1236 35.9426 39.9338 35.2742 39.9338C34.6817 39.9338 34.2259 40.0628 33.9069 40.3209C33.5878 40.5791 33.3827 40.9814 33.2916 41.528H30.8532C30.9747 40.4045 31.4305 39.5086 32.2205 38.8405C33.0105 38.1573 34.0436 37.8156 35.3198 37.8156C36.7175 37.8156 37.8113 38.218 38.6013 39.0227C39.3913 39.8123 39.7863 40.8524 39.7863 42.143V49.5678H37.3479V48.429C36.9985 48.8086 36.5503 49.1199 36.0034 49.3628C35.4717 49.5906 34.9172 49.7044 34.3398 49.7044ZM34.7956 47.7685C35.7375 47.7685 36.5503 47.4573 37.234 46.8347V44.8305H35.0691C33.7322 44.8305 33.0637 45.3316 33.0637 46.3337C33.0637 46.7892 33.2156 47.146 33.5195 47.4041C33.8385 47.6471 34.2639 47.7685 34.7956 47.7685Z" fill="#111111"/>
<path d="M45.8475 49.75C44.6321 49.75 43.6066 49.4235 42.7711 48.7707C41.9355 48.1178 41.4873 47.2523 41.4266 46.1742H43.8193C43.9105 46.6601 44.1308 47.0397 44.4802 47.313C44.8296 47.5711 45.2778 47.7002 45.8247 47.7002C46.4476 47.7002 46.9034 47.5711 47.192 47.313C47.4807 47.0397 47.625 46.6829 47.625 46.2426C47.625 45.8174 47.4427 45.4986 47.0781 45.286C46.7135 45.0734 46.1438 44.8533 45.369 44.6255C44.6245 44.3978 44.0092 44.17 43.5231 43.9422C43.0369 43.7145 42.6191 43.3804 42.2697 42.9401C41.9355 42.4846 41.7684 41.8925 41.7684 41.1636C41.7684 40.5107 41.9431 39.9338 42.2925 39.4327C42.6419 38.9165 43.1205 38.5217 43.7282 38.2484C44.3359 37.9599 45.0195 37.8156 45.7791 37.8156C47.0401 37.8156 48.0276 38.1193 48.7417 38.7267C49.4709 39.3188 49.8735 40.1615 49.9494 41.2547H47.6022C47.5263 40.8144 47.3288 40.4728 47.0097 40.2298C46.7059 39.9869 46.3033 39.8654 45.8019 39.8654C45.2702 39.8654 44.8752 39.9717 44.6169 40.1843C44.3587 40.3969 44.2295 40.6929 44.2295 41.0725C44.2295 41.4673 44.4042 41.771 44.7537 41.9836C45.1183 42.1809 45.6804 42.3935 46.44 42.6213C47.2148 42.8642 47.8453 43.0996 48.3315 43.3273C48.8176 43.5551 49.2354 43.8967 49.5848 44.3522C49.9343 44.8077 50.109 45.3999 50.109 46.1287C50.109 47.1915 49.7368 48.0646 48.9923 48.7479C48.2631 49.416 47.2148 49.75 45.8475 49.75Z" fill="#111111"/>
</svg>
