<svg width="512" height="512" viewBox="0 0 512 512" fill="none" xmlns="http://www.w3.org/2000/svg">
<rect width="512" height="512" fill="white"/>
<path d="M73.8828 246.361V171.053H54.5V154.297H73.8828V145.827C73.8828 139.567 75.2981 133.92 78.1286 128.887C80.9591 123.732 85.0203 119.742 90.3121 116.919C95.727 113.973 102.065 112.5 109.326 112.5C115.602 112.5 121.14 113.85 125.94 116.551V134.043C121.755 131.711 116.71 130.545 110.803 130.545C105.634 130.545 101.634 131.956 98.8036 134.78C95.9731 137.48 94.5579 141.224 94.5579 146.011V154.297H120.955V171.053H94.5579V208.707V246.361H73.8828Z" fill="#00AEEF"/>
<path d="M132.851 246.361V152.824H152.603V165.161C160.848 155.954 170.755 151.351 182.323 151.351C185.153 151.351 187.676 151.719 189.891 152.456V171.789C188.045 171.421 185.83 171.237 183.246 171.237C177.462 171.237 171.985 172.342 166.817 174.551C161.771 176.761 157.341 179.768 153.526 183.574V246.361H132.851Z" fill="#00AEEF"/>
<path d="M243.047 247.65C233.817 247.65 225.387 245.564 217.757 241.39C210.25 237.216 204.343 231.447 200.036 224.082C195.728 216.717 193.575 208.431 193.575 199.225C193.575 190.509 195.667 182.469 199.851 175.104C204.158 167.739 210.004 161.969 217.388 157.796C224.772 153.499 232.894 151.351 241.755 151.351C250.739 151.351 258.553 153.377 265.199 157.427C271.844 161.478 276.952 166.879 280.521 173.631C284.089 180.259 285.874 187.318 285.874 194.805C285.874 198.243 285.505 201.618 284.766 204.933H214.619C215.603 212.052 218.557 217.822 223.48 222.241C228.525 226.66 235.048 228.869 243.047 228.869C248.216 228.869 252.708 227.887 256.523 225.923C260.338 223.959 263.353 221.259 265.568 217.822H285.32C282.982 226.414 277.936 233.534 270.183 239.18C262.553 244.827 253.508 247.65 243.047 247.65ZM265.937 190.202C265.322 184.187 262.861 179.216 258.553 175.288C254.246 171.36 248.585 169.396 241.57 169.396C234.679 169.396 228.771 171.421 223.849 175.472C219.049 179.4 216.096 184.31 214.988 190.202H265.937Z" fill="#00AEEF"/>
<path d="M341.904 247.466C331.813 247.466 323.752 244.643 317.721 238.996C311.814 233.227 308.861 224.818 308.861 213.771V169.58H290.216V152.824H308.861V129.624H329.72V152.824H357.964V169.58H329.72V213.034C329.72 218.558 331.013 222.793 333.597 225.739C336.304 228.562 339.935 229.974 344.488 229.974C349.534 229.974 354.58 228.992 359.625 227.028V243.6C354.21 246.177 348.303 247.466 341.904 247.466Z" fill="#00AEEF"/>
<path d="M414.673 247.65C405.443 247.65 397.013 245.564 389.383 241.39C381.876 237.216 375.969 231.447 371.662 224.082C367.354 216.717 365.201 208.431 365.201 199.225C365.201 190.509 367.293 182.469 371.477 175.104C375.784 167.739 381.63 161.969 389.014 157.796C396.398 153.499 404.52 151.351 413.381 151.351C422.365 151.351 430.179 153.377 436.825 157.427C443.471 161.478 448.578 166.879 452.147 173.631C455.716 180.259 457.5 187.318 457.5 194.805C457.5 198.243 457.131 201.618 456.392 204.933H386.245C387.23 212.052 390.183 217.822 395.106 222.241C400.151 226.66 406.674 228.869 414.673 228.869C419.842 228.869 424.334 227.887 428.149 225.923C431.964 223.959 434.979 221.259 437.194 217.822H456.946C454.608 226.414 449.562 233.534 441.809 239.18C434.179 244.827 425.134 247.65 414.673 247.65ZM437.563 190.202C436.948 184.187 434.487 179.216 430.179 175.288C425.872 171.36 420.211 169.396 413.196 169.396C406.305 169.396 400.398 171.421 395.475 175.472C390.675 179.4 387.722 184.31 386.614 190.202H437.563Z" fill="#00AEEF"/>
<path d="M119.114 398.948C114.068 398.948 109.392 398.272 105.085 396.922C100.9 395.572 96.8392 393.424 92.9011 390.478V398.027H73.5183V265.638H94.1933V311.671C101.577 306.27 110.13 303.569 119.852 303.569C128.713 303.569 136.712 305.533 143.85 309.461C150.988 313.389 156.649 318.913 160.833 326.033C165.018 333.152 167.11 341.438 167.11 350.89C167.11 360.465 164.894 368.873 160.464 376.116C156.157 383.358 150.311 389.005 142.927 393.055C135.666 396.984 127.729 398.948 119.114 398.948ZM116.899 380.351C122.191 380.351 127.052 379.184 131.482 376.852C136.036 374.397 139.605 370.96 142.189 366.541C144.773 362.122 146.065 356.905 146.065 350.89C146.065 342.052 143.42 335.055 138.128 329.899C132.836 324.744 126.129 322.166 118.006 322.166C108.407 322.166 100.47 324.989 94.1933 330.636V372.801C100.47 377.834 108.038 380.351 116.899 380.351Z" fill="#111111"/>
<path d="M181.595 398.027V304.49H201.347V316.826C209.592 307.62 219.499 303.017 231.067 303.017C233.898 303.017 236.421 303.385 238.636 304.121V323.455C236.79 323.087 234.575 322.902 231.99 322.902C226.206 322.902 220.73 324.007 215.561 326.217C210.515 328.426 206.085 331.434 202.27 335.239V398.027H181.595Z" fill="#111111"/>
<path d="M274.954 399.132C265.847 399.132 258.402 396.799 252.618 392.135C246.957 387.347 244.126 380.78 244.126 372.433C244.126 364.086 247.141 357.457 253.171 352.547C259.325 347.637 268.001 345.182 279.2 345.182H298.398V337.08C298.398 331.802 297.106 327.69 294.521 324.744C291.937 321.675 287.937 320.141 282.523 320.141C277.723 320.141 274.031 321.184 271.447 323.271C268.862 325.358 267.201 328.61 266.463 333.03H246.711C247.695 323.946 251.387 316.703 257.786 311.302C264.186 305.779 272.554 303.017 282.892 303.017C294.214 303.017 303.075 306.27 309.474 312.775C315.873 319.159 319.073 327.567 319.073 338.001V398.027H299.321V388.82C296.491 391.889 292.86 394.406 288.43 396.37C284.122 398.211 279.631 399.132 274.954 399.132ZM278.646 383.481C286.276 383.481 292.86 380.964 298.398 375.931V359.728H280.861C270.031 359.728 264.617 363.779 264.617 371.881C264.617 375.563 265.847 378.448 268.309 380.535C270.893 382.499 274.339 383.481 278.646 383.481Z" fill="#111111"/>
<path d="M368.172 399.5C358.327 399.5 350.02 396.861 343.251 391.582C336.482 386.304 332.852 379.307 332.36 370.592H351.743C352.481 374.52 354.265 377.589 357.096 379.798C359.927 381.885 363.557 382.928 367.987 382.928C373.033 382.928 376.725 381.885 379.063 379.798C381.402 377.589 382.571 374.704 382.571 371.144C382.571 367.707 381.094 365.129 378.14 363.411C375.187 361.692 370.572 359.912 364.295 358.071C358.265 356.23 353.281 354.388 349.343 352.547C345.405 350.706 342.021 348.005 339.19 344.446C336.483 340.763 335.129 335.976 335.129 330.084C335.129 324.805 336.544 320.141 339.375 316.09C342.205 311.916 346.082 308.725 351.004 306.515C355.927 304.183 361.465 303.017 367.618 303.017C377.833 303.017 385.832 305.472 391.616 310.382C397.523 315.169 400.784 321.982 401.4 330.82H382.386C381.771 327.26 380.171 324.498 377.586 322.534C375.125 320.57 371.864 319.588 367.803 319.588C363.496 319.588 360.296 320.447 358.204 322.166C356.111 323.884 355.065 326.278 355.065 329.347C355.065 332.539 356.481 334.994 359.311 336.712C362.265 338.308 366.818 340.026 372.972 341.868C379.248 343.832 384.355 345.734 388.293 347.576C392.231 349.417 395.616 352.179 398.446 355.861C401.277 359.544 402.692 364.331 402.692 370.224C402.692 378.816 399.677 385.874 393.647 391.398C387.739 396.799 379.248 399.5 368.172 399.5Z" fill="#111111"/>
</svg>
