<svg width="192" height="192" viewBox="0 0 192 192" fill="none" xmlns="http://www.w3.org/2000/svg">
<rect width="192" height="192" fill="white"/>
<path d="M27.7061 92.3855V64.1448H20.4375V57.8614H27.7061V54.6852C27.7061 52.3376 28.2368 50.2201 29.2982 48.3328C30.3597 46.3994 31.8826 44.9034 33.867 43.8447C35.8976 42.7399 38.2743 42.1875 40.9972 42.1875C43.3508 42.1875 45.4275 42.6939 47.2273 43.7066V50.2661C45.6583 49.3915 43.7661 48.9542 41.5509 48.9542C39.6127 48.9542 38.1128 49.4836 37.0514 50.5423C35.9899 51.555 35.4592 52.959 35.4592 54.7543V57.8614H45.3583V64.1448H35.4592V78.2652V92.3855H27.7061Z" fill="#00AEEF"/>
<path d="M49.8189 92.3855V57.3091H57.2259V61.9353C60.318 58.4829 64.033 56.7567 68.3711 56.7567C69.4325 56.7567 70.3786 56.8948 71.2093 57.171V64.421C70.517 64.2829 69.6863 64.2139 68.7172 64.2139C66.5482 64.2139 64.4945 64.6282 62.5562 65.4567C60.6641 66.2853 59.0027 67.4131 57.5721 68.8401V92.3855H49.8189Z" fill="#00AEEF"/>
<path d="M91.1427 92.8689C87.6814 92.8689 84.5202 92.0863 81.6589 90.5212C78.8438 88.9562 76.6286 86.7926 75.0134 84.0307C73.3981 81.2688 72.5905 78.1616 72.5905 74.7092C72.5905 71.4409 73.3751 68.4258 74.9442 65.6639C76.5594 62.902 78.7515 60.7385 81.5205 59.1734C84.2894 57.5622 87.3353 56.7567 90.6581 56.7567C94.027 56.7567 96.9575 57.5162 99.4496 59.0353C101.942 60.5543 103.857 62.5797 105.195 65.1115C106.534 67.5972 107.203 70.2441 107.203 73.0521C107.203 74.341 107.064 75.6068 106.787 76.8497H80.4821C80.8513 79.5196 81.9589 81.6831 83.8049 83.3402C85.697 84.9974 88.1429 85.826 91.1427 85.826C93.0809 85.826 94.7654 85.4577 96.196 84.7212C97.6267 83.9847 98.7574 82.972 99.588 81.6831H106.995C106.118 84.9053 104.226 87.5752 101.319 89.6927C98.4574 91.8101 95.0654 92.8689 91.1427 92.8689ZM99.7265 71.3258C99.4957 69.0703 98.5727 67.206 96.9575 65.7329C95.3423 64.2599 93.2194 63.5234 90.5889 63.5234C88.0045 63.5234 85.7893 64.2829 83.9433 65.802C82.1435 67.275 81.0359 69.1163 80.6205 71.3258H99.7265Z" fill="#00AEEF"/>
<path d="M128.214 92.7998C124.43 92.7998 121.407 91.7411 119.146 89.6236C116.93 87.4601 115.823 84.3069 115.823 80.164V63.5924H108.831V57.3091H115.823V48.609H123.645V57.3091H134.236V63.5924H123.645V79.8878C123.645 81.9593 124.13 83.5474 125.099 84.6521C126.114 85.7109 127.476 86.2403 129.183 86.2403C131.075 86.2403 132.967 85.872 134.86 85.1355V91.3498C132.829 92.3165 130.614 92.7998 128.214 92.7998Z" fill="#00AEEF"/>
<path d="M155.502 92.8689C152.041 92.8689 148.88 92.0863 146.019 90.5212C143.204 88.9562 140.988 86.7926 139.373 84.0307C137.758 81.2688 136.95 78.1616 136.95 74.7092C136.95 71.4409 137.735 68.4258 139.304 65.6639C140.919 62.902 143.111 60.7385 145.88 59.1734C148.649 57.5622 151.695 56.7567 155.018 56.7567C158.387 56.7567 161.317 57.5162 163.809 59.0353C166.301 60.5543 168.217 62.5797 169.555 65.1115C170.893 67.5972 171.562 70.2441 171.562 73.0521C171.562 74.341 171.424 75.6068 171.147 76.8497H144.842C145.211 79.5196 146.319 81.6831 148.165 83.3402C150.057 84.9974 152.503 85.826 155.502 85.826C157.441 85.826 159.125 85.4577 160.556 84.7212C161.986 83.9847 163.117 82.972 163.948 81.6831H171.355C170.478 84.9053 168.586 87.5752 165.678 89.6927C162.817 91.8101 159.425 92.8689 155.502 92.8689ZM164.086 71.3258C163.855 69.0703 162.933 67.206 161.317 65.7329C159.702 64.2599 157.579 63.5234 154.949 63.5234C152.364 63.5234 150.149 64.2829 148.303 65.802C146.503 67.275 145.396 69.1163 144.98 71.3258H164.086Z" fill="#00AEEF"/>
<path d="M44.6678 149.605C42.7756 149.605 41.022 149.352 39.4067 148.846C37.8376 148.339 36.3147 147.534 34.8379 146.429V149.26H27.5693V99.6144H35.3225V116.876C38.0915 114.851 41.2989 113.838 44.9447 113.838C48.2675 113.838 51.2672 114.575 53.9438 116.048C56.6205 117.521 58.7434 119.592 60.3125 122.262C61.8816 124.932 62.6661 128.039 62.6661 131.584C62.6661 135.174 61.8354 138.327 60.1741 141.043C58.5588 143.759 56.3667 145.877 53.5977 147.396C50.8749 148.869 47.8983 149.605 44.6678 149.605ZM43.8371 142.631C45.8215 142.631 47.6444 142.194 49.3058 141.32C51.0134 140.399 52.3517 139.11 53.3208 137.453C54.29 135.796 54.7745 133.839 54.7745 131.584C54.7745 128.269 53.7823 125.646 51.7979 123.712C49.8135 121.779 47.2983 120.812 44.2524 120.812C40.6528 120.812 37.6761 121.871 35.3225 123.988V139.8C37.6761 141.688 40.5143 142.631 43.8371 142.631Z" fill="#111111"/>
<path d="M68.0981 149.26V114.184H75.5051V118.81C78.5971 115.357 82.3121 113.631 86.6502 113.631C87.7117 113.631 88.6577 113.769 89.4884 114.046V121.296C88.7962 121.157 87.9655 121.088 86.9963 121.088C84.8273 121.088 82.7736 121.503 80.8354 122.331C78.9432 123.16 77.2818 124.288 75.8512 125.715V149.26H68.0981Z" fill="#111111"/>
<path d="M103.108 149.674C99.6927 149.674 96.9006 148.8 94.7316 147.051C92.6087 145.255 91.5473 142.793 91.5473 139.662C91.5473 136.532 92.678 134.046 94.9393 132.205C97.2468 130.364 100.5 129.443 104.7 129.443H111.899V126.405C111.899 124.426 111.415 122.884 110.446 121.779C109.476 120.628 107.977 120.053 105.946 120.053C104.146 120.053 102.762 120.444 101.793 121.227C100.823 122.009 100.2 123.229 99.9234 124.886H92.5164C92.8856 121.48 94.2701 118.764 96.6699 116.738C99.0697 114.667 102.208 113.631 106.084 113.631C110.33 113.631 113.653 114.851 116.053 117.291C118.453 119.684 119.652 122.838 119.652 126.75V149.26H112.245V145.808C111.184 146.958 109.823 147.902 108.161 148.639C106.546 149.329 104.861 149.674 103.108 149.674ZM104.492 143.805C107.354 143.805 109.823 142.862 111.899 140.974V134.898H105.323C101.262 134.898 99.2312 136.417 99.2312 139.455C99.2312 140.836 99.6927 141.918 100.616 142.701C101.585 143.437 102.877 143.805 104.492 143.805Z" fill="#111111"/>
<path d="M138.064 149.812C134.373 149.812 131.257 148.823 128.719 146.843C126.181 144.864 124.82 142.24 124.635 138.972H131.904C132.18 140.445 132.85 141.596 133.911 142.424C134.972 143.207 136.334 143.598 137.995 143.598C139.887 143.598 141.272 143.207 142.149 142.424C143.026 141.596 143.464 140.514 143.464 139.179C143.464 137.89 142.91 136.923 141.803 136.279C140.695 135.635 138.964 134.967 136.611 134.277C134.349 133.586 132.48 132.896 131.004 132.205C129.527 131.515 128.258 130.502 127.196 129.167C126.181 127.786 125.673 125.991 125.673 123.781C125.673 121.802 126.204 120.053 127.265 118.534C128.327 116.969 129.781 115.772 131.627 114.943C133.473 114.069 135.549 113.631 137.857 113.631C141.687 113.631 144.687 114.552 146.856 116.393C149.071 118.188 150.294 120.743 150.525 124.058H143.395C143.164 122.723 142.564 121.687 141.595 120.95C140.672 120.214 139.449 119.846 137.926 119.846C136.311 119.846 135.111 120.168 134.326 120.812C133.542 121.457 133.15 122.354 133.15 123.505C133.15 124.702 133.68 125.623 134.742 126.267C135.849 126.865 137.557 127.51 139.864 128.2C142.218 128.937 144.133 129.65 145.61 130.341C147.087 131.031 148.356 132.067 149.417 133.448C150.479 134.829 151.009 136.624 151.009 138.834C151.009 142.056 149.879 144.703 147.617 146.774C145.402 148.8 142.218 149.812 138.064 149.812Z" fill="#111111"/>
</svg>
